<svg width="80" height="102" viewBox="0 0 80 102" fill="none" xmlns="http://www.w3.org/2000/svg">
<path d="M0 5C0 2.23858 2.23858 0 5 0H72L80 7.5V97C80 99.7614 77.7614 102 75 102H5C2.23858 102 0 99.7614 0 97V5Z" fill="url(#paint0_linear_147_423)"/>
<path d="M0 5C0 2.23858 2.23858 0 5 0H72L80 7.5V97C80 99.7614 77.7614 102 75 102H5C2.23858 102 0 99.7614 0 97V5Z" fill="url(#paint1_linear_147_423)"/>
<path d="M0 5C0 2.23858 2.23858 0 5 0H72L80 7.5V97C80 99.7614 77.7614 102 75 102H5C2.23858 102 0 99.7614 0 97V5Z" fill="url(#paint2_linear_147_423)"/>
<path d="M0 5C0 2.23858 2.23858 0 5 0H72L80 7.5V97C80 99.7614 77.7614 102 75 102H5C2.23858 102 0 99.7614 0 97V5Z" fill="url(#paint3_radial_147_423)"/>
<path d="M72 6.5V0L80 7.5H73C72.4323 7.4269 72.1638 7.28673 72 6.5Z" fill="#464A4B"/>
<rect x="32" y="23" width="33" height="1" rx="0.5" fill="#ECEFF4"/>
<rect x="32" y="20" width="33" height="1" rx="0.5" fill="#ECEFF4"/>
<rect x="43" y="17" width="22" height="1" rx="0.5" fill="#ECEFF4"/>
<path d="M15 17C15 15.8954 15.8954 15 17 15H23C24.1046 15 25 15.8954 25 17V23C25 24.1046 24.1046 25 23 25H17C15.8954 25 15 24.1046 15 23V17Z" fill="#FFD25E" fill-opacity="0.9375"/>
<rect x="32" y="44" width="33" height="1" rx="0.5" fill="#ECEFF4"/>
<rect x="32" y="41" width="33" height="1" rx="0.5" fill="#ECEFF4"/>
<rect x="43" y="38" width="22" height="1" rx="0.5" fill="#ECEFF4"/>
<path d="M15 38C15 36.8954 15.8954 36 17 36H23C24.1046 36 25 36.8954 25 38V44C25 45.1046 24.1046 46 23 46H17C15.8954 46 15 45.1046 15 44V38Z" fill="#ECEFF4"/>
<rect x="32" y="65" width="33" height="1" rx="0.5" fill="#ECEFF4"/>
<rect x="32" y="62" width="33" height="1" rx="0.5" fill="#ECEFF4"/>
<rect x="43" y="59" width="22" height="1" rx="0.5" fill="#ECEFF4"/>
<path d="M15 59C15 57.8954 15.8954 57 17 57H23C24.1046 57 25 57.8954 25 59V65C25 66.1046 24.1046 67 23 67H17C15.8954 67 15 66.1046 15 65V59Z" fill="#FFD25E" fill-opacity="0.9375"/>
<rect x="32" y="86" width="33" height="1" rx="0.5" fill="#ECEFF4"/>
<rect x="32" y="83" width="33" height="1" rx="0.5" fill="#ECEFF4"/>
<rect x="43" y="80" width="22" height="1" rx="0.5" fill="#ECEFF4"/>
<path d="M15 80C15 78.8954 15.8954 78 17 78H23C24.1046 78 25 78.8954 25 80V86C25 87.1046 24.1046 88 23 88H17C15.8954 88 15 87.1046 15 86V80Z" fill="#ECEFF4"/>
<path d="M5 102H44.5L0 30.5V97C0 99.7614 2.23858 102 5 102Z" fill="url(#paint4_linear_147_423)" fill-opacity="0.1"/>
<defs>
<linearGradient id="paint0_linear_147_423" x1="48.3636" y1="-11.2294" x2="-21.1369" y2="87.053" gradientUnits="userSpaceOnUse">
<stop stop-color="#61F6FF"/>
<stop offset="1" stop-color="#6A1D8C"/>
</linearGradient>
<linearGradient id="paint1_linear_147_423" x1="21" y1="103.5" x2="21" y2="100" gradientUnits="userSpaceOnUse">
<stop stop-color="white"/>
<stop offset="1" stop-color="white" stop-opacity="0"/>
</linearGradient>
<linearGradient id="paint2_linear_147_423" x1="-2" y1="90.5" x2="2.5" y2="90.5" gradientUnits="userSpaceOnUse">
<stop stop-color="white"/>
<stop offset="1" stop-color="white" stop-opacity="0"/>
</linearGradient>
<radialGradient id="paint3_radial_147_423" cx="0" cy="0" r="1" gradientUnits="userSpaceOnUse" gradientTransform="translate(-0.999999 102) rotate(-78.6901) scale(5.09902 7.42008)">
<stop stop-color="white"/>
<stop offset="1" stop-color="white" stop-opacity="0"/>
</radialGradient>
<linearGradient id="paint4_linear_147_423" x1="-1.87501" y1="106.755" x2="64.4826" y2="18.8644" gradientUnits="userSpaceOnUse">
<stop stop-color="white"/>
<stop offset="1" stop-color="white" stop-opacity="0"/>
</linearGradient>
</defs>
</svg>
