<svg width="73" height="130" viewBox="0 0 73 130" fill="none" xmlns="http://www.w3.org/2000/svg">
<path d="M56 76L72.5 77.5L72 87.5L56 76Z" fill="#F359EF"/>
<path d="M37 129.5L72 87.5L56 76L37 129.5Z" fill="url(#paint0_linear_147_376)"/>
<path d="M57.9999 94.5C55.5999 91.3 55.6666 80.8333 55.9999 76L37 129.5L62 99C61.6666 98.8333 60.3999 97.7 57.9999 94.5Z" fill="black" fill-opacity="0.08"/>
<path d="M25.5 93.5L14.5 98L37 129.5L25.5 93.5Z" fill="url(#paint1_linear_147_376)"/>
<path d="M25.5 93.5L17 97L37 129.5L25.5 93.5Z" fill="black" fill-opacity="0.1"/>
<path d="M25.5 93.5L14.5 98L29.5 119L32.5 115.5L25.5 93.5Z" fill="black" fill-opacity="0.1"/>
<path d="M56 76L25.5 93.5L37 129.5L56 76Z" fill="url(#paint2_linear_147_376)"/>
<path d="M56 76L25.5 93.5L32.5 115.5L56 76Z" fill="url(#paint3_linear_147_376)"/>
<path d="M56 76L25.5 93.5L32.5 115.5L56 76Z" fill="url(#paint4_linear_147_376)"/>
<path d="M25.5 93.5L56 76L72.5 77.5L72 85.5L56 76L32.5 115L25.5 93.5Z" fill="url(#paint5_linear_147_376)"/>
<path d="M14.5 98H0L37 129.5L14.5 98Z" fill="url(#paint6_linear_147_376)"/>
<path d="M14.5 98H0L15 110.5L31.5 122L14.5 98Z" fill="black" fill-opacity="0.19"/>
<path d="M0 98L5 31L25.5 93.5L14.5 98H0Z" fill="url(#paint7_linear_147_376)"/>
<path d="M0 98L5 31L25.5 93.5L14.5 98H0Z" fill="url(#paint8_linear_147_376)"/>
<path d="M14.5 98H0L3.6194 49.5L14.5 98Z" fill="url(#paint9_linear_147_376)"/>
<path d="M45.5 29.5L5 31L25.5 93.5L56 76L45.5 29.5Z" fill="url(#paint10_linear_147_376)"/>
<path d="M45.5 29.5L5 31L25.5 93.5L56 76L45.5 29.5Z" fill="url(#paint11_linear_147_376)"/>
<path d="M45.5 29.5L5 31L25.5 93.5L56 76L45.5 29.5Z" fill="url(#paint12_linear_147_376)"/>
<path d="M45.5 29.5L32.5 30L45.5 82L56 76L45.5 29.5Z" fill="url(#paint13_linear_147_376)"/>
<path d="M21 30.4004L5 31.0004L25.5 93.5004L32.5 89.5004L21 30.4004Z" fill="url(#paint14_linear_147_376)"/>
<path d="M17.5 69.5L25.5 93.5C39 85.5 54.5 77 54.5 77C41 80 36.5 79.5 31 79.5C25.5 77.5 20.1667 72.8333 17.5 69.5Z" fill="url(#paint15_linear_147_376)"/>
<path d="M45.5 29.5L24 0L5 31L45.5 29.5Z" fill="url(#paint16_linear_147_376)"/>
<path d="M45.5 29.5L24 0L5 31L45.5 29.5Z" fill="url(#paint17_linear_147_376)"/>
<path d="M28.5 6.5L24 0L5 31L16.5 30.5L18 26.5L28.5 6.5Z" fill="#9DC5E6" fill-opacity="0.2"/>
<path d="M45.5 29.5L24 0L55.5 25L45.5 29.5Z" fill="url(#paint18_linear_147_376)"/>
<path d="M45.5 29.5L24 0L55.5 25L45.5 29.5Z" fill="url(#paint19_linear_147_376)"/>
<path d="M55.5 25L45.5 29.5L56 76L72.5 77.5L55.5 25Z" fill="url(#paint20_linear_147_376)"/>
<path d="M55.5 25L45.5 29.5L56 76L48.5 30.5L56 26.5L55.5 25Z" fill="url(#paint21_linear_147_376)"/>
<defs>
<linearGradient id="paint0_linear_147_376" x1="73" y1="83.5" x2="37" y2="115" gradientUnits="userSpaceOnUse">
<stop stop-color="#B1DFF7"/>
<stop offset="1" stop-color="#B573E9"/>
</linearGradient>
<linearGradient id="paint1_linear_147_376" x1="26.25" y1="93" x2="26.25" y2="129" gradientUnits="userSpaceOnUse">
<stop stop-color="#1E96CC"/>
<stop offset="1" stop-color="#62B5DB"/>
</linearGradient>
<linearGradient id="paint2_linear_147_376" x1="29" y1="118" x2="58.5" y2="74.5" gradientUnits="userSpaceOnUse">
<stop stop-color="#92B7DD"/>
<stop offset="1" stop-color="#7DD9F1"/>
</linearGradient>
<linearGradient id="paint3_linear_147_376" x1="32" y1="112.5" x2="51" y2="78.5" gradientUnits="userSpaceOnUse">
<stop stop-color="#3A89AD"/>
<stop offset="1" stop-color="#74D9EA"/>
</linearGradient>
<linearGradient id="paint4_linear_147_376" x1="32" y1="112.5" x2="51" y2="78.5" gradientUnits="userSpaceOnUse">
<stop stop-color="#3A89AD"/>
<stop offset="1" stop-color="#74D9EA"/>
</linearGradient>
<linearGradient id="paint5_linear_147_376" x1="44" y1="80" x2="47" y2="85" gradientUnits="userSpaceOnUse">
<stop stop-color="white" stop-opacity="0.59"/>
<stop offset="1" stop-color="white" stop-opacity="0"/>
</linearGradient>
<linearGradient id="paint6_linear_147_376" x1="1" y1="94.5" x2="36" y2="129" gradientUnits="userSpaceOnUse">
<stop stop-color="#BC4ADB"/>
<stop offset="1" stop-color="#CCD7E8"/>
</linearGradient>
<linearGradient id="paint7_linear_147_376" x1="4" y1="31" x2="15" y2="95.5" gradientUnits="userSpaceOnUse">
<stop stop-color="#DA5CDF"/>
<stop offset="1" stop-color="#68B0D8"/>
</linearGradient>
<linearGradient id="paint8_linear_147_376" x1="19.5" y1="69.5" x2="15" y2="71" gradientUnits="userSpaceOnUse">
<stop stop-color="white"/>
<stop offset="1" stop-color="#68B0D8" stop-opacity="0"/>
</linearGradient>
<linearGradient id="paint9_linear_147_376" x1="-2.5" y1="93.5" x2="15" y2="83" gradientUnits="userSpaceOnUse">
<stop stop-color="white"/>
<stop offset="1" stop-color="#C4C4C4" stop-opacity="0"/>
</linearGradient>
<linearGradient id="paint10_linear_147_376" x1="33.5" y1="26" x2="30.5" y2="94" gradientUnits="userSpaceOnUse">
<stop stop-color="#D682FF"/>
<stop offset="1" stop-color="#2C87B9"/>
</linearGradient>
<linearGradient id="paint11_linear_147_376" x1="1.5" y1="34" x2="59" y2="77" gradientUnits="userSpaceOnUse">
<stop stop-color="#AD6BD3" stop-opacity="0"/>
<stop offset="1" stop-color="white" stop-opacity="0.2"/>
</linearGradient>
<linearGradient id="paint12_linear_147_376" x1="19" y1="62.5" x2="16" y2="63.5" gradientUnits="userSpaceOnUse">
<stop stop-color="#AD6BD3" stop-opacity="0"/>
<stop offset="1" stop-color="white" stop-opacity="0.5"/>
</linearGradient>
<linearGradient id="paint13_linear_147_376" x1="34" y1="70.5" x2="58" y2="70.5" gradientUnits="userSpaceOnUse">
<stop stop-color="#CD99E6" stop-opacity="0"/>
<stop offset="0.969497" stop-color="#D2FDFD"/>
</linearGradient>
<linearGradient id="paint14_linear_147_376" x1="18.5" y1="31.0004" x2="18.5" y2="94.0004" gradientUnits="userSpaceOnUse">
<stop stop-color="#101010" stop-opacity="0.2"/>
<stop offset="0.359375" stop-color="#101010" stop-opacity="0"/>
<stop offset="0.65625" stop-color="#101010" stop-opacity="0.0612618"/>
<stop offset="1" stop-color="#101010" stop-opacity="0.35"/>
</linearGradient>
<linearGradient id="paint15_linear_147_376" x1="37.5" y1="67" x2="26.5" y2="93" gradientUnits="userSpaceOnUse">
<stop stop-color="#167EB5" stop-opacity="0"/>
<stop offset="0.494792" stop-color="#167EB5" stop-opacity="0.3"/>
<stop offset="0.911458" stop-color="#167EB5" stop-opacity="0.5"/>
</linearGradient>
<linearGradient id="paint16_linear_147_376" x1="21.5" y1="2.30087e-07" x2="30.5" y2="31" gradientUnits="userSpaceOnUse">
<stop stop-color="#CDFBFA"/>
<stop offset="1" stop-color="#C7F9FA"/>
</linearGradient>
<linearGradient id="paint17_linear_147_376" x1="21.5" y1="8.31421e-07" x2="38" y2="31" gradientUnits="userSpaceOnUse">
<stop stop-color="#CDFBFA" stop-opacity="0"/>
<stop offset="1" stop-color="#72CFDC"/>
</linearGradient>
<linearGradient id="paint18_linear_147_376" x1="24" y1="-4" x2="56" y2="29" gradientUnits="userSpaceOnUse">
<stop stop-color="#BE4DC4"/>
<stop offset="1" stop-color="#CFFAFB"/>
</linearGradient>
<linearGradient id="paint19_linear_147_376" x1="50" y1="9.5" x2="46.5" y2="29" gradientUnits="userSpaceOnUse">
<stop stop-color="#BE4DC4" stop-opacity="0"/>
<stop offset="1" stop-color="#71CFDC"/>
</linearGradient>
<linearGradient id="paint20_linear_147_376" x1="48.5" y1="23" x2="67.5" y2="79" gradientUnits="userSpaceOnUse">
<stop stop-color="#F961F3"/>
<stop offset="1" stop-color="#BFF6F9"/>
</linearGradient>
<linearGradient id="paint21_linear_147_376" x1="43" y1="24" x2="70" y2="58.5" gradientUnits="userSpaceOnUse">
<stop stop-opacity="0.21"/>
<stop offset="1" stop-opacity="0"/>
</linearGradient>
</defs>
</svg>
