<svg width="22" height="22" viewBox="0 0 22 22" fill="none" xmlns="http://www.w3.org/2000/svg">
<path d="M12.4151 9.58427C11.6643 8.83373 10.6461 8.41211 9.58445 8.41211C8.52281 8.41211 7.50463 8.83373 6.75379 9.58427L3.9222 12.4149C3.17134 13.1658 2.74951 14.1842 2.74951 15.2461C2.74951 16.3079 3.17134 17.3263 3.9222 18.0772C4.67306 18.828 5.69145 19.2499 6.75333 19.2499C7.81521 19.2499 8.83359 18.828 9.58445 18.0772L10.9998 16.6618" stroke="#6E757C" strokeWidth="2" strokeLinecap="round" stroke-linejoin="round"/>
<path d="M9.58447 12.4151C10.3353 13.1657 11.3535 13.5873 12.4151 13.5873C13.4768 13.5873 14.495 13.1657 15.2458 12.4151L18.0774 9.58445C18.8282 8.83359 19.2501 7.8152 19.2501 6.75333C19.2501 5.69145 18.8282 4.67306 18.0774 3.9222C17.3265 3.17134 16.3081 2.74951 15.2463 2.74951C14.1844 2.74951 13.166 3.17134 12.4151 3.9222L10.9998 5.33754" stroke="#6E757C" strokeWidth="2" strokeLinecap="round" stroke-linejoin="round"/>
</svg>
