<svg width="180" height="119" viewBox="0 0 180 119" fill="none" xmlns="http://www.w3.org/2000/svg">
<g filter="url(#filter0_d_147_489)">
<path d="M15.327 55.701C17.5404 64.5826 11.9409 68.926 8.86454 69.9874C10.3673 70.8903 12.9976 73.3202 11.4973 75.8166C13 76.7195 15.6287 79.1499 14.1284 81.6462C15.6311 82.5492 18.2614 84.9791 16.7611 87.4754C18.2638 88.3784 20.8933 90.8085 19.393 93.3049C20.8957 94.2078 23.5261 96.6377 22.0257 99.1341C23.5285 100.037 26.1588 102.467 24.6585 104.963C27.9888 103.74 35.4112 103.168 38.4582 110.663L130.545 74.448C129.669 70.5393 129.942 61.8633 138.049 58.4282C134.996 58.4814 134.883 54.7953 135.208 52.9455C132.156 52.9987 132.043 49.3126 132.368 47.4628C129.315 47.5161 129.203 43.8299 129.528 41.9801C126.475 42.0334 126.362 38.3472 126.687 36.4974C123.635 36.5507 123.522 32.8645 123.847 31.0147C120.795 31.068 120.682 27.3818 121.007 25.532C113.401 28.1349 108.59 23.4185 106.72 20.249L15.327 55.701Z" fill="url(#paint0_linear_147_489)"/>
</g>
<path d="M15.327 55.701C17.5404 64.5826 11.9409 68.926 8.86454 69.9874C10.3673 70.8903 12.9976 73.3202 11.4973 75.8166C13 76.7195 15.6287 79.1499 14.1284 81.6462C15.6311 82.5492 18.2614 84.9791 16.7611 87.4754C18.2638 88.3784 20.8933 90.8085 19.393 93.3049C20.8957 94.2078 23.5261 96.6377 22.0257 99.1341C23.5285 100.037 26.1588 102.467 24.6585 104.963C27.9888 103.74 35.4112 103.168 38.4582 110.663L130.545 74.448C129.669 70.5393 129.942 61.8633 138.049 58.4282C134.996 58.4814 134.883 54.7953 135.208 52.9455C132.156 52.9987 132.043 49.3126 132.368 47.4628C129.315 47.5161 129.203 43.8299 129.528 41.9801C126.475 42.0334 126.362 38.3472 126.687 36.4974C123.635 36.5507 123.522 32.8645 123.847 31.0147C120.795 31.068 120.682 27.3818 121.007 25.532C113.401 28.1349 108.59 23.4185 106.72 20.249L15.327 55.701Z" fill="url(#paint1_linear_147_489)"/>
<path d="M15.326 55.701C17.5394 64.5826 11.94 68.926 8.86356 69.9874C10.3663 70.8903 12.9966 73.3202 11.4963 75.8166C12.999 76.7195 15.6277 79.1499 14.1274 81.6462C15.6301 82.5492 18.2605 84.9791 16.7601 87.4754C18.2628 88.3784 20.8924 90.8085 19.392 93.3049C20.8948 94.2078 23.5251 96.6377 22.0248 99.1341C23.5275 100.037 26.1578 102.467 24.6575 104.963C27.9878 103.74 35.4102 103.168 38.4572 110.663L130.544 74.448C129.668 70.5393 129.941 61.8633 138.048 58.4282C134.995 58.4814 134.882 54.7953 135.207 52.9455C132.155 52.9987 132.042 49.3126 132.367 47.4628C129.314 47.5161 129.202 43.8299 129.527 41.9801C126.474 42.0334 126.361 38.3472 126.686 36.4974C123.634 36.5507 123.521 32.8645 123.846 31.0147C120.794 31.068 120.681 27.3818 121.006 25.532C113.4 28.1349 108.589 23.4185 106.719 20.249L15.326 55.701Z" fill="url(#paint2_radial_147_489)"/>
<path d="M15.327 55.701C17.5404 64.5826 11.9409 68.926 8.86454 69.9874C10.3673 70.8903 12.9976 73.3202 11.4973 75.8166C13 76.7195 15.6287 79.1499 14.1284 81.6462C15.6311 82.5492 18.2614 84.9791 16.7611 87.4754C18.2638 88.3784 20.8933 90.8085 19.393 93.3049C20.8957 94.2078 23.5261 96.6377 22.0257 99.1341C23.5285 100.037 26.1588 102.467 24.6585 104.963C27.9888 103.74 35.4112 103.168 38.4582 110.663L130.545 74.448C129.669 70.5393 129.942 61.8633 138.049 58.4282C134.996 58.4814 134.883 54.7953 135.208 52.9455C132.156 52.9987 132.043 49.3126 132.368 47.4628C129.315 47.5161 129.203 43.8299 129.528 41.9801C126.475 42.0334 126.362 38.3472 126.687 36.4974C123.635 36.5507 123.522 32.8645 123.847 31.0147C120.795 31.068 120.682 27.3818 121.007 25.532C113.401 28.1349 108.59 23.4185 106.72 20.249L15.327 55.701Z" fill="url(#paint3_linear_147_489)"/>
<path d="M44.2742 44.6288L106.718 20.2488C108.588 23.4183 113.399 28.1347 121.005 25.5319C120.68 27.3816 120.793 31.0678 123.845 31.0146C123.52 32.8643 123.633 36.5505 126.685 36.4973C126.36 38.347 126.473 42.0332 129.526 41.98C129.201 43.8297 129.313 47.5159 132.366 47.4627C132.069 49.1523 132.137 52.3743 134.478 52.8788L135.206 52.9454C134.942 52.95 134.7 52.9266 134.478 52.8788L44.2742 44.6288Z" fill="black" fill-opacity="0.1"/>
<path d="M49.4296 62.2885L49.7858 63.2342C49.9084 63.5597 49.9355 63.8059 49.867 63.973C49.8099 64.1122 49.6288 64.2419 49.3236 64.362L45.8904 65.7135L52.9584 84.4761C53.081 84.8016 53.108 85.0478 53.0396 85.2149C52.9825 85.3541 52.8014 85.4838 52.4962 85.604L50.9799 86.2008L43.6015 66.6144L39.4529 68.2474L39.0967 67.3016C38.9741 66.9762 38.9413 66.7439 38.9984 66.6047C39.0668 66.4376 39.2537 66.294 39.5589 66.1739L49.4296 62.2885ZM54.4615 60.3078L62.1961 80.84C62.3187 81.1654 62.3458 81.4116 62.2773 81.5787C62.2202 81.7179 62.0391 81.8476 61.7339 81.9678L60.2175 82.5646L52.4829 62.0325C52.3603 61.707 52.3276 61.4747 52.3846 61.3355C52.4531 61.1684 52.6399 61.0248 52.9451 60.9046L54.4615 60.3078ZM69.2766 78.9988C68.2848 79.3892 67.4986 79.4534 66.9181 79.1915C66.349 78.9016 65.8652 78.228 65.4668 77.1704L59.6055 61.6111C59.2071 60.5534 59.1277 59.7322 59.3673 59.1474C59.6184 58.5348 60.2399 58.0333 61.2317 57.6428L64.9225 56.1901C65.4756 55.9723 65.9241 55.971 66.2679 56.186C66.6231 56.3731 66.9691 56.7391 67.3057 57.2839L62.8138 59.0519C62.2225 59.2847 61.9004 59.5633 61.8474 59.8878C61.7944 60.2123 61.8867 60.6898 62.1242 61.3202L67.5258 75.6592C67.7633 76.2897 68.0082 76.7071 68.2604 76.9115C68.5126 77.1158 68.9343 77.1016 69.5256 76.8689L74.0175 75.1008L74.3738 76.0465C74.4963 76.372 74.5329 76.6144 74.4836 76.774C74.4456 76.9057 74.274 77.0317 73.9688 77.1518L69.2766 78.9988ZM72.0079 53.4011L79.7425 73.9333C79.8651 74.2587 79.8922 74.5049 79.8237 74.672C79.7666 74.8112 79.5855 74.9409 79.2804 75.0611L77.7639 75.6579L70.0293 55.1258C69.9067 54.8003 69.874 54.568 69.931 54.4288C69.9995 54.2617 70.1863 54.1181 70.4915 53.998L72.0079 53.4011ZM88.3499 71.491L86.9194 72.0541C86.6142 72.1742 86.3051 72.2259 85.9921 72.2089C85.6714 72.1717 85.3907 72.0369 85.15 71.8047L77.4276 64.2997L76.6116 62.1336L77.4967 52.1864C77.523 51.8491 77.6466 51.5669 77.8677 51.3397C78.0811 51.0922 78.3404 50.9084 78.6456 50.7883L79.8472 50.3153L78.673 62.3732L88.3499 71.491ZM89.2902 59.4201L92.4622 67.8404L97.9269 65.6894L98.2831 66.6352C98.4057 66.9606 98.4328 67.2069 98.3643 67.3739C98.3073 67.5132 98.1261 67.6428 97.8209 67.763L90.8399 70.5109L83.1053 49.9787C82.9827 49.6533 82.95 49.421 83.007 49.2817C83.0755 49.1146 83.2623 48.971 83.5675 48.8509L90.5485 46.103L90.9048 47.0488C91.0274 47.3742 91.064 47.6167 91.0146 47.7763C90.9766 47.908 90.805 48.0339 90.4998 48.154L85.7504 50.0235L88.6236 57.6506L93.23 55.8375L93.5863 56.7832C93.7089 57.1086 93.7454 57.3512 93.696 57.5107C93.658 57.6424 93.4864 57.7684 93.1813 57.8885L89.2902 59.4201ZM103.242 41.1064L103.598 42.0522C103.721 42.3775 103.748 42.6238 103.68 42.791C103.623 42.9302 103.442 43.0598 103.136 43.18L99.703 44.5314L106.771 63.294C106.894 63.6195 106.921 63.8657 106.852 64.0329C106.795 64.1721 106.614 64.3017 106.309 64.4218L104.793 65.0187L97.4142 45.4324L93.2657 47.0653L92.9094 46.1196C92.7868 45.7942 92.754 45.5618 92.8111 45.4226C92.8796 45.2555 93.0664 45.1119 93.3716 44.9918L103.242 41.1064Z" fill="#D2FDFD"/>
<g filter="url(#filter1_d_147_489)">
<path d="M41.1795 51.0678C41.051 60.2202 34.5279 62.9892 31.2825 63.2297C32.5047 64.4865 34.4272 67.5076 32.339 69.538C33.5612 70.7948 35.482 73.8159 33.3938 75.8463C34.616 77.1031 36.5385 80.1242 34.4503 82.1546C35.6725 83.4114 37.5941 86.4325 35.5059 88.4629C36.7282 89.7197 38.6506 92.7408 36.5625 94.7712C37.7847 96.028 39.7071 99.0491 37.619 101.079C41.1512 100.748 48.4736 102.09 49.5052 110.115L147.787 98.6219C147.938 94.6191 150.419 86.3008 159.134 85.0501C156.169 84.3219 157.001 80.7291 157.788 79.0238C154.823 78.2956 155.656 74.7028 156.442 72.9975C153.478 72.2693 154.31 68.6765 155.097 66.9712C152.132 66.243 152.964 62.6502 153.751 60.9449C150.786 60.2167 151.619 56.6239 152.405 54.9186C149.441 54.1904 150.273 50.5976 151.06 48.8923C143.042 49.4662 139.595 43.6774 138.596 40.1352L41.1795 51.0678Z" fill="url(#paint4_linear_147_489)"/>
</g>
<path d="M41.1795 51.0678C41.051 60.2202 34.5279 62.9892 31.2825 63.2297C32.5047 64.4865 34.4272 67.5076 32.339 69.538C33.5612 70.7948 35.482 73.8159 33.3938 75.8463C34.616 77.1031 36.5385 80.1242 34.4503 82.1546C35.6725 83.4114 37.5941 86.4325 35.5059 88.4629C36.7282 89.7197 38.6506 92.7408 36.5625 94.7712C37.7847 96.028 39.7071 99.0491 37.619 101.079C41.1512 100.748 48.4736 102.09 49.5052 110.115L147.787 98.6219C147.938 94.6191 150.419 86.3008 159.134 85.0501C156.169 84.3219 157.001 80.7291 157.788 79.0238C154.823 78.2956 155.656 74.7028 156.442 72.9975C153.478 72.2693 154.31 68.6765 155.097 66.9712C152.132 66.243 152.964 62.6502 153.751 60.9449C150.786 60.2167 151.619 56.6239 152.405 54.9186C149.441 54.1904 150.273 50.5976 151.06 48.8923C143.042 49.4662 139.595 43.6774 138.596 40.1352L41.1795 51.0678Z" fill="url(#paint5_linear_147_489)"/>
<path d="M41.1795 51.0678C41.051 60.2202 34.5279 62.9892 31.2825 63.2297C32.5047 64.4865 34.4272 67.5076 32.339 69.538C33.5612 70.7948 35.482 73.8159 33.3938 75.8463C34.616 77.1031 36.5385 80.1242 34.4503 82.1546C35.6725 83.4114 37.5941 86.4325 35.5059 88.4629C36.7282 89.7197 38.6506 92.7408 36.5625 94.7712C37.7847 96.028 39.7071 99.0491 37.619 101.079C41.1512 100.748 48.4736 102.09 49.5052 110.115L147.787 98.6219C147.938 94.6191 150.419 86.3008 159.134 85.0501C156.169 84.3219 157.001 80.7291 157.788 79.0238C154.823 78.2956 155.656 74.7028 156.442 72.9975C153.478 72.2693 154.31 68.6765 155.097 66.9712C152.132 66.243 152.964 62.6502 153.751 60.9449C150.786 60.2167 151.619 56.6239 152.405 54.9186C149.441 54.1904 150.273 50.5976 151.06 48.8923C143.042 49.4662 139.595 43.6774 138.596 40.1352L41.1795 51.0678Z" fill="url(#paint6_linear_147_489)"/>
<path d="M41.1795 51.0678C41.051 60.2202 34.5279 62.9892 31.2825 63.2297C32.5047 64.4865 34.4272 67.5076 32.339 69.538C33.5612 70.7948 35.482 73.8159 33.3938 75.8463C34.616 77.1031 36.5385 80.1242 34.4503 82.1546C35.6725 83.4114 37.5941 86.4325 35.5059 88.4629C36.7282 89.7197 38.6506 92.7408 36.5625 94.7712C37.7847 96.028 39.7071 99.0491 37.619 101.079C41.1512 100.748 48.4736 102.09 49.5052 110.115L147.787 98.6219C147.938 94.6191 150.419 86.3008 159.134 85.0501C156.169 84.3219 157.001 80.7291 157.788 79.0238C154.823 78.2956 155.656 74.7028 156.442 72.9975C153.478 72.2693 154.31 68.6765 155.097 66.9712C152.132 66.243 152.964 62.6502 153.751 60.9449C150.786 60.2167 151.619 56.6239 152.405 54.9186C149.441 54.1904 150.273 50.5976 151.06 48.8923C143.042 49.4662 139.595 43.6774 138.596 40.1352L41.1795 51.0678Z" fill="url(#paint7_radial_147_489)"/>
<path d="M120.313 42.3204L138.594 40.1342C139.593 43.6764 143.04 49.4652 151.058 48.8913C150.271 50.5966 149.439 54.1894 152.404 54.9176C151.617 56.6229 150.785 60.2157 153.75 60.9439C152.963 62.6492 152.13 66.242 155.095 66.9702C154.308 68.6755 153.476 72.2683 156.441 72.9965C155.968 74.0211 155.479 75.7271 155.807 77.0838L157.787 79.0228C156.603 78.7321 156.025 77.985 155.807 77.0838L120.313 42.3204Z" fill="black" fill-opacity="0.1"/>
<path d="M32.3396 69.5374C34.4278 67.5071 32.5054 64.4859 31.2831 63.2291C32.6374 63.4414 36.1396 62.8003 39.3142 58.5376L100.147 103.954L49.5058 110.114C48.4743 102.09 41.1519 100.747 37.6196 101.079C39.7078 99.0486 37.7854 96.0274 36.5631 94.7706C38.6513 92.7403 36.7289 89.7191 35.5066 88.4623C37.5948 86.432 35.6732 83.4108 34.451 82.154C36.5391 80.1237 34.6167 77.1025 33.3944 75.8457C35.4826 73.8154 33.5619 70.7942 32.3396 69.5374Z" fill="url(#paint8_linear_147_489)" fill-opacity="0.7"/>
<path d="M72.583 65.8955L72.6846 66.901C72.7196 67.247 72.6825 67.492 72.5735 67.6359C72.4826 67.7558 72.2743 67.8347 71.9485 67.8725L68.2834 68.2976L70.2999 88.2457C70.3349 88.5917 70.2978 88.8367 70.1888 88.9806C70.0978 89.1005 69.8895 89.1794 69.5637 89.2172L67.945 89.4049L65.84 68.581L61.4113 69.0947L61.3096 68.0892C61.2747 67.7432 61.3026 67.5102 61.3935 67.3903C61.5025 67.2464 61.72 67.1556 62.0458 67.1178L72.583 65.8955ZM77.9547 65.2724L80.1613 87.1019C80.1963 87.4479 80.1593 87.6928 80.0502 87.8368C79.9593 87.9567 79.751 88.0355 79.4252 88.0733L77.8064 88.2611L75.5998 66.4316C75.5648 66.0856 75.5928 65.8527 75.6836 65.7328C75.7927 65.5889 76.0101 65.498 76.3359 65.4602L77.9547 65.2724ZM87.4772 87.1394C86.4184 87.2622 85.6421 87.1225 85.1482 86.7204C84.6725 86.2942 84.3779 85.519 84.2642 84.3945L82.592 67.8521C82.4783 66.7276 82.6123 65.9136 82.994 65.4099C83.3939 64.8822 84.1233 64.557 85.182 64.4341L89.1221 63.9771C89.7125 63.9086 90.1464 64.0224 90.4235 64.3184C90.7188 64.5905 90.9592 65.0329 91.1448 65.6459L86.3496 66.202C85.7183 66.2753 85.3355 66.4619 85.201 66.7619C85.0665 67.0619 85.0332 67.5471 85.101 68.2174L86.642 83.4624C86.7098 84.1327 86.8393 84.599 87.0306 84.8612C87.222 85.1234 87.6332 85.2179 88.2644 85.1447L93.0596 84.5885L93.1613 85.594C93.1962 85.94 93.1694 86.1837 93.0807 86.3253C93.0102 86.4429 92.812 86.5206 92.4862 86.5584L87.4772 87.1394ZM96.6859 63.0998L98.8925 84.9292C98.9275 85.2752 98.8905 85.5202 98.7814 85.6641C98.6905 85.784 98.4822 85.8629 98.1564 85.9007L96.5376 86.0884L94.331 64.259C94.296 63.913 94.324 63.68 94.4149 63.5601C94.5239 63.4162 94.7414 63.3253 95.0672 63.2876L96.6859 63.0998ZM107.838 84.7776L106.311 84.9548C105.986 84.9926 105.674 84.9631 105.375 84.8664C105.075 84.7481 104.838 84.5459 104.665 84.2597L99.1273 75.0243L98.8945 72.7213L102.303 63.3343C102.415 63.0151 102.607 62.774 102.878 62.6112C103.148 62.4268 103.446 62.3157 103.772 62.2779L105.055 62.1291L100.825 73.4819L107.838 84.7776ZM111.845 73.3523L112.75 82.3046L118.583 81.6279L118.685 82.6335C118.72 82.9794 118.683 83.2244 118.574 83.3683C118.483 83.4883 118.275 83.5671 117.949 83.6049L110.497 84.4693L108.29 62.6399C108.255 62.2939 108.283 62.0609 108.374 61.941C108.483 61.7971 108.7 61.7062 109.026 61.6684L116.479 60.804L116.58 61.8095C116.615 62.1555 116.588 62.3993 116.5 62.5408C116.429 62.6584 116.231 62.7361 115.905 62.7739L110.835 63.362L111.655 71.471L116.572 70.9006L116.674 71.9061C116.709 72.2521 116.682 72.4959 116.593 72.6374C116.523 72.755 116.324 72.8327 115.999 72.8705L111.845 73.3523ZM130.03 59.2322L130.131 60.2377C130.166 60.5837 130.129 60.8287 130.02 60.9726C129.929 61.0925 129.721 61.1714 129.395 61.2091L125.73 61.6343L127.747 81.5824C127.781 81.9284 127.744 82.1734 127.635 82.3173C127.544 82.4372 127.336 82.5161 127.01 82.5539L125.392 82.7416L123.286 61.9177L118.858 62.4314L118.756 61.4259C118.721 61.0799 118.749 60.8469 118.84 60.727C118.949 60.5831 119.166 60.4922 119.492 60.4544L130.03 59.2322Z" fill="#D2FDFD"/>
<defs>
<filter id="filter0_d_147_489" x="8.86426" y="0.249023" width="149.185" height="110.414" filterUnits="userSpaceOnUse" color-interpolation-filters="sRGB">
<feFlood flood-opacity="0" result="BackgroundImageFix"/>
<feColorMatrix in="SourceAlpha" type="matrix" values="0 0 0 0 0 0 0 0 0 0 0 0 0 0 0 0 0 0 127 0" result="hardAlpha"/>
<feOffset dx="10" dy="-10"/>
<feGaussianBlur stdDeviation="5"/>
<feComposite in2="hardAlpha" operator="out"/>
<feColorMatrix type="matrix" values="0 0 0 0 0 0 0 0 0 0 0 0 0 0 0 0 0 0 0.25 0"/>
<feBlend mode="normal" in2="BackgroundImageFix" result="effect1_dropShadow_147_489"/>
<feBlend mode="normal" in="SourceGraphic" in2="effect1_dropShadow_147_489" result="shape"/>
</filter>
<filter id="filter1_d_147_489" x="31.2822" y="20.1348" width="147.852" height="89.9795" filterUnits="userSpaceOnUse" color-interpolation-filters="sRGB">
<feFlood flood-opacity="0" result="BackgroundImageFix"/>
<feColorMatrix in="SourceAlpha" type="matrix" values="0 0 0 0 0 0 0 0 0 0 0 0 0 0 0 0 0 0 127 0" result="hardAlpha"/>
<feOffset dx="10" dy="-10"/>
<feGaussianBlur stdDeviation="5"/>
<feComposite in2="hardAlpha" operator="out"/>
<feColorMatrix type="matrix" values="0 0 0 0 0 0 0 0 0 0 0 0 0 0 0 0 0 0 0.25 0"/>
<feBlend mode="normal" in2="BackgroundImageFix" result="effect1_dropShadow_147_489"/>
<feBlend mode="normal" in="SourceGraphic" in2="effect1_dropShadow_147_489" result="shape"/>
</filter>
<linearGradient id="paint0_linear_147_489" x1="32.5" y1="115" x2="87.2114" y2="6.12145" gradientUnits="userSpaceOnUse">
<stop stop-color="#6A1D8C"/>
<stop offset="1" stop-color="#61F6FF"/>
</linearGradient>
<linearGradient id="paint1_linear_147_489" x1="16.9562" y1="103.342" x2="26.6515" y2="98.4527" gradientUnits="userSpaceOnUse">
<stop stop-color="white"/>
<stop offset="1" stop-color="white" stop-opacity="0"/>
</linearGradient>
<radialGradient id="paint2_radial_147_489" cx="0" cy="0" r="1" gradientUnits="userSpaceOnUse" gradientTransform="translate(30.7166 107.739) rotate(-68.9625) scale(6.16909 11.0994)">
<stop stop-color="white"/>
<stop offset="1" stop-color="white" stop-opacity="0"/>
</radialGradient>
<linearGradient id="paint3_linear_147_489" x1="62.3216" y1="104.949" x2="60.519" y2="99.9296" gradientUnits="userSpaceOnUse">
<stop stop-color="white"/>
<stop offset="1" stop-color="white" stop-opacity="0"/>
</linearGradient>
<linearGradient id="paint4_linear_147_489" x1="54" y1="112" x2="126" y2="15.5005" gradientUnits="userSpaceOnUse">
<stop stop-color="#6A1D8C"/>
<stop offset="1" stop-color="#61F6FF"/>
</linearGradient>
<linearGradient id="paint5_linear_147_489" x1="30.5864" y1="97.5443" x2="41.2088" y2="95.294" gradientUnits="userSpaceOnUse">
<stop stop-color="white"/>
<stop offset="1" stop-color="white" stop-opacity="0"/>
</linearGradient>
<linearGradient id="paint6_linear_147_489" x1="74.0365" y1="110.686" x2="73.5757" y2="105.372" gradientUnits="userSpaceOnUse">
<stop stop-color="white"/>
<stop offset="1" stop-color="white" stop-opacity="0"/>
</linearGradient>
<radialGradient id="paint7_radial_147_489" cx="0" cy="0" r="1" gradientUnits="userSpaceOnUse" gradientTransform="translate(43.6757 105.525) rotate(-45) scale(5.01101 9.01579)">
<stop stop-color="white"/>
<stop offset="1" stop-color="white" stop-opacity="0"/>
</radialGradient>
<linearGradient id="paint8_linear_147_489" x1="19.6555" y1="139.658" x2="73.4524" y2="68.6099" gradientUnits="userSpaceOnUse">
<stop stop-color="white"/>
<stop offset="1" stop-color="white" stop-opacity="0"/>
</linearGradient>
</defs>
</svg>
