<svg width="22" height="22" viewBox="0 0 22 22" fill="none" xmlns="http://www.w3.org/2000/svg">
<g clip-path="url(#clip0_2:2331)">
<path d="M19.2284 3.43759C18.7325 2.94164 18.1438 2.54828 17.4959 2.28C16.8479 2.01171 16.1535 1.87376 15.4522 1.87402C14.751 1.87429 14.0566 2.01276 13.4089 2.28153C12.7611 2.5503 12.1727 2.9441 11.6772 3.44042L11.0304 4.09521L10.389 3.44184L10.3848 3.43767C9.8892 2.94195 9.3008 2.54873 8.65322 2.28045C8.00564 2.01217 7.31157 1.87409 6.61063 1.87409C5.9097 1.87409 5.21563 2.01217 4.56805 2.28045C3.92047 2.54873 3.33207 2.94195 2.83644 3.43767L2.5483 3.72586C1.54732 4.727 0.984985 6.08483 0.984985 7.50065C0.984985 8.91646 1.54732 10.2743 2.5483 11.2754L10.1531 18.8814L11.0119 19.7813L11.0324 19.7608L11.0546 19.783L11.8592 18.9339L19.5165 11.2753C20.516 10.2734 21.0773 8.91584 21.0773 7.50052C21.0773 6.0852 20.516 4.72767 19.5165 3.72573L19.2284 3.43759ZM18.5728 10.3316L11.0324 17.8734L3.49178 10.3316C2.74106 9.58077 2.31931 8.5624 2.31931 7.50054C2.31931 6.43868 2.74106 5.42031 3.49178 4.66946L3.77997 4.38127C4.53033 3.63079 5.54792 3.209 6.60909 3.2086C7.67026 3.2082 8.68817 3.62923 9.43909 4.37914L11.0275 5.99679L12.6235 4.38127C12.9953 4.00948 13.4366 3.71456 13.9222 3.51335C14.4079 3.31214 14.9285 3.20858 15.4542 3.20858C15.9799 3.20858 16.5004 3.31214 16.9861 3.51335C17.4718 3.71456 17.9131 4.00948 18.2848 4.38127L18.573 4.66941C19.3226 5.42089 19.7435 6.43905 19.7435 7.50055C19.7435 8.56205 19.3224 9.5802 18.5728 10.3316Z" fill="#6E757C"/>
</g>
<defs>
<clipPath id="clip0_2:2331">
<rect width="21.35" height="21.3535" fill="white" transform="translate(0.333252 0.142578)"/>
</clipPath>
</defs>
</svg>
