<svg width="69" height="53" viewBox="0 0 69 53" fill="none" xmlns="http://www.w3.org/2000/svg">
<circle cx="26.5" cy="26.5" r="26" stroke="#E3AE23"/>
<path fill-rule="evenodd" clip-rule="evenodd" d="M15.8458 37.3467H41.7414L41.8028 17.5867H15.94V15.3911H38.9933V13.1956H15.8458C15.1429 13.1956 14.4688 13.4748 13.9718 13.9718C13.4748 14.4688 13.1956 15.1429 13.1956 15.8458V34.6964C13.1956 35.3993 13.4748 36.0734 13.9718 36.5704C14.4688 37.0675 15.1429 37.3467 15.8458 37.3467ZM38.9929 25.821H36.7974V28.0166H38.9929V25.821Z" fill="#E3AE23"/>
<circle r="3.14154" transform="matrix(-1 0 0 1 60.6024 14.6415)" fill="#E3AE23" stroke="#0F0E13" stroke-linejoin="round"/>
<path d="M67.8859 33.7163C67.279 33.0227 61.9034 29.121 61.4699 28.9476C61.7011 29.6413 62.2849 31.254 62.7704 32.1557C63.3773 33.2828 64.5045 36.144 64.5045 36.5775C64.5045 37.0111 63.1172 39.959 62.1635 40.7393C61.2098 41.5196 61.4699 42.6468 61.4699 43.0803C61.4699 43.5138 62.3369 44.2941 62.7704 44.1207C63.1172 43.982 65.227 41.2884 66.2385 39.959C66.6721 38.9185 67.6085 36.6989 67.8859 36.144C68.2327 35.4504 68.4929 34.41 67.8859 33.7163Z" fill="#E3AE23" stroke="#0F0E13" stroke-linejoin="round"/>
<path d="M57.5681 18.1967C56.8438 18.23 54.8794 20.0427 54.967 21.9249C56.7742 27.6951 57.1409 29.9516 57.5681 33.6299C58.0884 34.8437 59.649 35.7975 59.9958 35.9709C60.3426 36.1443 60.6027 36.4911 61.1229 37.3581C62.5968 40.0459 63.4639 44.7279 64.1575 46.3753C65.3714 47.2423 65.8916 46.9822 66.3251 46.8955C66.7586 46.8088 67.539 46.5487 67.539 44.7279C66.4985 38.9188 63.0304 32.416 61.99 30.0751C60.9495 27.7341 60.7761 25.7399 60.8628 24.1792C60.9495 22.6186 60.6027 19.7574 59.649 18.8903C58.886 18.1967 57.9438 18.1389 57.5681 18.1967Z" fill="#E3AE23" stroke="#0F0E13" stroke-linejoin="round"/>
<path d="M56.9615 28.6009C57.2389 29.0171 58.5221 29.8726 59.2158 30.2483C58.9556 30.5951 58.6088 31.2714 57.9152 32.2425C55.4008 30.5084 54.7939 29.6413 54.4471 28.6009C54.1003 27.5605 53.8546 25.223 54.1003 24.179C54.4471 22.7051 55.1627 21.6897 55.5742 21.2311C55.945 20.818 56.9615 20.1907 57.395 20.1907C57.8285 20.1907 58.6955 20.3641 58.8689 21.2311C58.8689 22.3583 57.8285 22.6184 56.9615 23.8322C56.0944 25.0461 56.6147 28.0807 56.9615 28.6009Z" fill="#E3AE23" stroke="#0F0E13" stroke-linejoin="round"/>
</svg>
