<svg width="52" height="52" viewBox="0 0 52 52" fill="none" xmlns="http://www.w3.org/2000/svg">
<path d="M26 1C12.1929 1 1 12.1929 1 26C1 39.8071 12.1929 51 26 51C39.8071 51 51 39.8071 51 26C51 12.1929 39.8071 1 26 1Z" fill="black" stroke="#A4A4A4" stroke-width="2"/>
<path d="M36.9674 19.5809C36.8632 19.4757 36.739 19.3922 36.6022 19.3354C36.4654 19.2786 36.3187 19.2496 36.1706 19.25H35.375V17.375C35.3747 17.0767 35.256 16.7908 35.0451 16.5799C34.8342 16.369 34.5483 16.2503 34.25 16.25H18.0606C17.1826 16.25 16.3405 16.5988 15.7197 17.2197C15.0988 17.8405 14.75 18.6826 14.75 19.5606V32.4394C14.75 33.3174 15.0988 34.1595 15.7197 34.7803C16.3405 35.4012 17.1826 35.75 18.0606 35.75H36.1263C36.4238 35.7494 36.7091 35.6312 36.9198 35.4211C37.1306 35.2111 37.2497 34.9262 37.2513 34.6286L37.2955 20.3788C37.2964 20.2307 37.2679 20.0839 37.2116 19.9469C37.1553 19.8099 37.0723 19.6855 36.9674 19.5809ZM35.7525 34.25H18.0606C17.5804 34.25 17.1199 34.0592 16.7803 33.7197C16.4408 33.3801 16.25 32.9196 16.25 32.4394V19.5606C16.25 19.0804 16.4408 18.6199 16.7803 18.2803C17.1199 17.9408 17.5804 17.75 18.0606 17.75H33.875V19.25H18.125V20.75H35.7944L35.7525 34.25Z" fill="white"/>
<path d="M32.375 26.375H33.875V27.875H32.375V26.375Z" fill="white"/>
</svg>
